<?xml version="1.0" encoding="utf-8"?>
<!-- Generator: Adobe Illustrator 19.1.0, SVG Export Plug-In . SVG Version: 6.00 Build 0)  -->
<!DOCTYPE svg PUBLIC "-//W3C//DTD SVG 1.1//EN" "http://www.w3.org/Graphics/SVG/1.1/DTD/svg11.dtd">
<svg version="1.1" id="Layer_1" xmlns="http://www.w3.org/2000/svg" xmlns:xlink="http://www.w3.org/1999/xlink" x="0px" y="0px"
	 viewBox="0 0 666.4 182.2" enable-background="new 0 0 666.4 182.2" xml:space="preserve">
<g>
	<g>
		<path fill="#FFFFFF" d="M269.4,77.1h38.4v25.4h-38.4v52.2h48.3v25.4h-76.3V2h76.3v25.4h-48.3V77.1z"/>
		<path fill="#FFFFFF" d="M372.7,0C400,0,414,16.3,414,44.8v5.6h-26.5V43c0-12.7-5.1-17.6-14-17.6s-14,4.8-14,17.6
			c0,13,5.6,22.6,23.9,38.7c23.4,20.6,30.8,35.4,30.8,55.7c0,28.5-14.2,44.8-41.7,44.8c-27.5,0-41.7-16.3-41.7-44.8v-10.9h26.5v12.7
			c0,12.7,5.6,17.3,14.5,17.3c8.9,0,14.5-4.6,14.5-17.3c0-13-5.6-22.6-23.9-38.7c-23.4-20.6-30.8-35.4-30.8-55.7
			C331.5,16.3,345.5,0,372.7,0z"/>
		<path fill="#FFFFFF" d="M430.2,2h28v178.1h-28V2z"/>
		<path fill="#FFFFFF" d="M520.6,80.9h39.2v56.5c0,28.5-14.2,44.8-41.7,44.8c-27.5,0-41.7-16.3-41.7-44.8V44.8
			C476.3,16.3,490.5,0,518,0c27.5,0,41.7,16.3,41.7,44.8v17.3h-26.5V43c0-12.7-5.6-17.6-14.5-17.6c-8.9,0-14.5,4.8-14.5,17.6v96.2
			c0,12.7,5.6,17.3,14.5,17.3c8.9,0,14.5-4.6,14.5-17.3v-32.8h-12.7V80.9z"/>
		<path fill="#FFFFFF" d="M603.3,51.1h-0.5v129h-25.2V2h35.1l28.2,106.6h0.5V2h24.9v178.1h-28.8L603.3,51.1z"/>
	</g>
	<polygon fill="#333333" points="91.3,75 91.3,109.1 85.9,109.1 85.9,94.5 79.8,94.5 79.8,109.1 74.4,109.1 74.4,75 79.8,75 
		79.8,89.6 85.9,89.6 85.9,75 	"/>
	<polygon fill="#333333" points="91.4,22.6 91.4,56.8 85.9,56.8 79.3,32 79.2,32 79.2,56.8 74.4,56.8 74.4,22.6 81.1,22.6 
		86.5,43.1 86.6,43.1 86.6,22.6 	"/>
	<polygon fill="#333333" points="91.4,127.3 91.4,161.5 85.9,161.5 79.3,136.8 79.2,136.8 79.2,161.5 74.4,161.5 74.4,127.3 
		81.1,127.3 86.5,147.8 86.6,147.8 86.6,127.3 	"/>
	<polygon fill="#FFFFFF" points="112.6,161.5 107.2,161.5 106.3,155.3 99.7,155.3 98.8,161.5 93.8,161.5 99.3,127.3 107.1,127.3 	
		"/>
	<polygon fill="#FFFFFF" points="112.6,109.1 107.2,109.1 106.3,102.9 99.7,102.9 98.8,109.1 93.8,109.1 99.3,75 107.1,75 	"/>
	<polygon fill="#FFFFFF" points="112.6,56.8 107.2,56.8 106.3,50.6 99.7,50.6 98.8,56.8 93.8,56.8 99.3,22.6 107.1,22.6 	"/>
	<polygon fill="#333333" points="128.3,22.6 128.3,27.5 122.7,27.5 122.7,56.8 117.3,56.8 117.3,27.5 111.7,27.5 111.7,22.6 	"/>
	<polygon fill="#333333" points="128.3,127.3 128.3,132.2 122.7,132.2 122.7,161.5 117.3,161.5 117.3,132.2 111.7,132.2 
		111.7,127.3 	"/>
	<path fill="#FFFFFF" d="M131.6,83.4v17.3c0,5.5-2.6,8.4-8,8.4h-8.5V75h8.5C128.9,75,131.6,78,131.6,83.4z"/>
	<rect x="135" y="75" fill="#333333" width="5.4" height="34.1"/>
	<path fill="#FFFFFF" d="M181.9,2h-44.3v0H48.8L0,91.4l48.4,88.8h129.7v0h3.8c28,0,41.7-15.5,41.7-44V46.1
		C223.6,17.6,209.9,2,181.9,2z M130.6,22.6h14.6v4.9H136V37h7.4v4.9H136v10h9.3v4.9h-14.6V22.6z M140.3,75v34.1H135V75H140.3z
		 M131.6,83.4v17.3c0,5.5-2.6,8.4-8,8.4h-8.5V75h8.5C128.9,75,131.6,78,131.6,83.4z M111.7,22.6h16.6v4.9h-5.6v29.2h-5.4V27.5h-5.6
		V22.6z M99.3,22.6h7.8l5.5,34.1h-5.4l-0.9-6.2h-6.6l-0.9,6.2h-4.9L99.3,22.6z M99.3,75h7.8l5.5,34.1h-5.4l-0.9-6.2h-6.6l-0.9,6.2
		h-4.9L99.3,75z M91.4,161.5h-5.5l-6.6-24.7h-0.1v24.7h-4.8v-34.1h6.7l5.4,20.4h0.1v-20.4h4.8V161.5z M85.9,89.6V75h5.5v34.1h-5.5
		V94.5h-6.1v14.6h-5.4V75h5.4v14.6H85.9z M91.4,56.8h-5.5L79.3,32h-0.1v24.7h-4.8V22.6h6.7l5.4,20.4h0.1V22.6h4.8V56.8z
		 M107.2,161.5l-0.9-6.2h-6.6l-0.9,6.2h-4.9l5.5-34.1h7.8l5.5,34.1H107.2z M122.7,161.5h-5.4v-29.3h-5.6v-4.9h16.6v4.9h-5.6V161.5z
		 M140.7,161.5l-0.9-6.2h-6.6l-0.9,6.2h-4.9l5.5-34.1h7.9l5.5,34.1H140.7z M195.6,137.4c0,12.7-5.4,17.3-14.3,17.3h-3.3V27.5h3.3
		c8.9,0,14.3,4.6,14.3,17.3V137.4z"/>
	<polygon fill="#333333" points="146.1,161.5 140.7,161.5 139.8,155.3 133.2,155.3 132.3,161.5 127.3,161.5 132.8,127.3 
		140.6,127.3 	"/>
	<rect x="135" y="75" fill="#333333" width="5.4" height="34.1"/>
	<polygon fill="#333333" points="136,27.5 136,37 143.3,37 143.3,41.9 136,41.9 136,51.9 145.2,51.9 145.2,56.8 130.6,56.8 
		130.6,22.6 145.2,22.6 145.2,27.5 	"/>
	<polygon fill="#333333" points="136,27.5 136,37 143.3,37 143.3,41.9 136,41.9 136,51.9 145.2,51.9 145.2,56.8 130.6,56.8 
		130.6,22.6 145.2,22.6 145.2,27.5 	"/>
	<path fill="#333333" d="M140.6,127.3h-7.9l-5.5,34.1h4.9l0.9-6.2h6.6l0.9,6.2h5.4L140.6,127.3z M133.9,150.6l2.5-17.3h0.1l1.1,7.7
		l1.4,9.6H133.9z"/>
	<g>
		<path fill="#444444" d="M86.6,22.6v20.4h-0.1l-5.4-20.4h-6.7v34.1h4.8V32h0.1l6.6,24.7h5.5V22.6H86.6z"/>
		<path fill="#444444" d="M107.1,22.6h-7.8l-5.5,34.1h4.9l0.9-6.2h6.6l0.9,6.2h5.4L107.1,22.6z M100.4,45.9l2.5-17.3h0.1l2.5,17.3
			H100.4z"/>
		<path fill="#444444" d="M111.7,22.6v4.9h5.6v29.2h5.4V27.5h5.6v-4.9H111.7z"/>
		<path fill="#444444" d="M145.2,27.5v-4.9h-14.6v34.1h14.6v-4.9H136v-10h7.4V37H136v-9.5H145.2z"/>
		<path fill="#444444" d="M85.9,75v14.6h-6.1V75h-5.4v34.1h5.4V94.5h6.1v14.6h5.5V75H85.9z"/>
		<path fill="#444444" d="M107.1,75h-7.8l-5.5,34.1h4.9l0.9-6.2h6.6l0.9,6.2h5.4L107.1,75z M100.4,98.3l2.5-17.3h0.1l2.5,17.3H100.4
			z"/>
		<path fill="#444444" d="M123.6,75h-8.5v34.1h8.5c5.4,0,8-3,8-8.4V83.4C131.6,78,128.9,75,123.6,75z M126.2,100.9
			c0,2.4-1,3.3-2.7,3.3h-3V79.9h3c1.7,0,2.7,0.9,2.7,3.3V100.9z"/>
		<path fill="#444444" d="M135,75v34.1h5.4V75H135z"/>
		<path fill="#444444" d="M86.6,127.3v20.4h-0.1l-5.4-20.4h-6.7v34.1h4.8v-24.7h0.1l6.6,24.7h5.5v-34.1H86.6z"/>
		<path fill="#444444" d="M107.1,127.3h-7.8l-5.5,34.1h4.9l0.9-6.2h6.6l0.9,6.2h5.4L107.1,127.3z M100.4,150.6l2.5-17.3h0.1
			l2.5,17.3H100.4z"/>
		<path fill="#444444" d="M111.7,127.3v4.9h5.6v29.3h5.4v-29.3h5.6v-4.9H111.7z"/>
		<path fill="#444444" d="M140.6,127.3h-7.9l-5.5,34.1h4.9l0.9-6.2h6.6l0.9,6.2h5.4L140.6,127.3z M133.9,150.6l2.5-17.3h0.1l1.1,7.7
			l1.4,9.6H133.9z"/>
		<polygon fill="#FFFFFF" points="139,150.6 133.9,150.6 136.4,133.4 136.5,133.4 137.6,141.1 		"/>
	</g>
</g>
</svg>
